<svg width="113" height="18" viewBox="0 0 113 18" fill="none" xmlns="http://www.w3.org/2000/svg">
<path d="M0.528 17V16.76L1.08 16.544C1.352 16.432 1.536 16.288 1.632 16.112C1.744 15.92 1.8 15.664 1.8 15.344V2.816C1.8 2.496 1.752 2.248 1.656 2.072C1.576 1.88 1.384 1.728 1.08 1.616L0.528 1.4V1.16H12.024L12.168 4.856H11.928L10.896 2.6C10.752 2.312 10.6 2.08 10.44 1.904C10.28 1.728 10.04 1.64 9.72 1.64H5.4V8.576H7.968C8.288 8.576 8.528 8.496 8.688 8.336C8.864 8.16 9.016 7.928 9.144 7.64L9.624 6.68H9.864V11H9.624L9.144 9.992C9 9.704 8.848 9.48 8.688 9.32C8.528 9.144 8.288 9.056 7.968 9.056H5.4V16.52H10.248C10.568 16.52 10.816 16.44 10.992 16.28C11.168 16.104 11.312 15.864 11.424 15.56L12.408 13.304H12.648L12.504 17H0.528ZM18.5747 17.36C17.5507 17.36 16.7507 17.104 16.1747 16.592C15.6147 16.08 15.3347 15.264 15.3347 14.144V5.936H13.6787V5.696L14.2547 5.6C14.7507 5.488 15.1747 5.328 15.5267 5.12C15.8947 4.912 16.2547 4.632 16.6067 4.28L18.5747 2.096H18.8147L18.7427 5.456H21.4307V5.936H18.7187V14.576C18.7187 15.136 18.8387 15.56 19.0787 15.848C19.3347 16.136 19.6547 16.28 20.0387 16.28C20.3747 16.28 20.6707 16.2 20.9267 16.04C21.1827 15.864 21.4387 15.632 21.6947 15.344L21.9347 15.584C21.6147 16.128 21.1747 16.56 20.6147 16.88C20.0547 17.2 19.3747 17.36 18.5747 17.36ZM23.2386 17V16.76L23.5266 16.664C24.1026 16.472 24.3906 16.072 24.3906 15.464V2.648C24.3906 2.312 24.3346 2.064 24.2226 1.904C24.1106 1.744 23.8946 1.624 23.5746 1.544L23.2146 1.448V1.208L27.4386 0.175999L27.8226 0.391999L27.7266 3.776V6.776C28.2866 6.312 28.8866 5.92 29.5266 5.6C30.1826 5.264 30.9026 5.096 31.6866 5.096C32.7266 5.096 33.5506 5.392 34.1586 5.984C34.7826 6.576 35.0946 7.488 35.0946 8.72V15.488C35.0946 15.808 35.1586 16.064 35.2866 16.256C35.4146 16.448 35.6386 16.592 35.9586 16.688L36.1506 16.76V17H30.5346V16.76L30.8226 16.688C31.3986 16.496 31.6866 16.088 31.6866 15.464V7.928C31.6866 7.288 31.5746 6.848 31.3506 6.608C31.1426 6.368 30.7666 6.248 30.2226 6.248C29.8706 6.248 29.4866 6.32 29.0706 6.464C28.6546 6.592 28.2306 6.824 27.7986 7.16V15.512C27.7986 16.136 28.0866 16.536 28.6626 16.712L28.8546 16.76V17H23.2386ZM43.5924 5.096C44.6324 5.096 45.5204 5.312 46.2564 5.744C46.9924 6.16 47.5524 6.736 47.9364 7.472C48.3364 8.192 48.5364 9.016 48.5364 9.944C48.5364 10.12 48.5284 10.304 48.5124 10.496C48.4964 10.672 48.4644 10.832 48.4164 10.976H41.2644C41.2804 12.704 41.5844 13.952 42.1764 14.72C42.7844 15.472 43.6804 15.848 44.8644 15.848C45.6644 15.848 46.3124 15.72 46.8084 15.464C47.3044 15.208 47.7684 14.832 48.2004 14.336L48.4404 14.552C47.9444 15.432 47.2804 16.12 46.4484 16.616C45.6324 17.112 44.6484 17.36 43.4964 17.36C42.3604 17.36 41.3524 17.12 40.4724 16.64C39.5924 16.144 38.9044 15.44 38.4084 14.528C37.9124 13.616 37.6644 12.528 37.6644 11.264C37.6644 9.952 37.9524 8.84 38.5284 7.928C39.1044 7 39.8404 6.296 40.7364 5.816C41.6484 5.336 42.6004 5.096 43.5924 5.096ZM43.5204 5.576C43.0564 5.576 42.6564 5.72 42.3204 6.008C42.0004 6.28 41.7444 6.776 41.5524 7.496C41.3764 8.2 41.2804 9.2 41.2644 10.496H45.3684C45.5284 8.752 45.4644 7.496 45.1764 6.728C44.8884 5.96 44.3364 5.576 43.5204 5.576ZM50.2125 17V16.76L50.5725 16.664C50.8925 16.568 51.1085 16.424 51.2205 16.232C51.3485 16.04 51.4125 15.792 51.4125 15.488V7.976C51.4125 7.624 51.3485 7.368 51.2205 7.208C51.1085 7.032 50.8925 6.912 50.5725 6.848L50.2125 6.752V6.512L54.3405 5.12L54.5805 5.36L54.7965 7.424V7.616C55.0205 7.168 55.3085 6.76 55.6605 6.392C56.0285 6.008 56.4285 5.696 56.8605 5.456C57.3085 5.216 57.7485 5.096 58.1805 5.096C58.7885 5.096 59.2525 5.264 59.5725 5.6C59.8925 5.936 60.0525 6.36 60.0525 6.872C60.0525 7.416 59.8925 7.84 59.5725 8.144C59.2685 8.432 58.9005 8.576 58.4685 8.576C57.7965 8.576 57.2045 8.24 56.6925 7.568L56.6445 7.52C56.4845 7.296 56.3005 7.176 56.0925 7.16C55.8845 7.128 55.6925 7.224 55.5165 7.448C55.3565 7.592 55.2205 7.768 55.1085 7.976C55.0125 8.168 54.9165 8.392 54.8205 8.648V15.344C54.8205 15.984 55.1005 16.384 55.6605 16.544L56.4285 16.76V17H50.2125ZM60.7014 17V16.76L61.1334 16.616C61.4534 16.504 61.6694 16.352 61.7814 16.16C61.8934 15.968 61.9494 15.712 61.9494 15.392C61.9654 14.432 61.9734 13.464 61.9734 12.488C61.9734 11.512 61.9734 10.536 61.9734 9.56V8.6C61.9734 7.64 61.9734 6.68 61.9734 5.72C61.9734 4.744 61.9654 3.776 61.9494 2.816C61.9494 2.496 61.9014 2.24 61.8054 2.048C61.7254 1.856 61.5334 1.704 61.2294 1.592L60.7014 1.4V1.16H72.3174L72.4854 5.144H72.2454L70.8774 2.624C70.7174 2.32 70.5334 2.08 70.3254 1.904C70.1174 1.728 69.8294 1.64 69.4614 1.64H65.5974C65.5814 2.776 65.5734 3.936 65.5734 5.12C65.5734 6.304 65.5734 7.48 65.5734 8.648H68.0694C68.4374 8.648 68.7094 8.568 68.8854 8.408C69.0614 8.248 69.2294 8.016 69.3894 7.712L69.8934 6.8H70.1334V11H69.8934L69.3654 10.088C69.2054 9.8 69.0374 9.568 68.8614 9.392C68.7014 9.216 68.4374 9.128 68.0694 9.128H65.5734C65.5734 10.248 65.5734 11.32 65.5734 12.344C65.5734 13.352 65.5814 14.344 65.5974 15.32C65.5974 15.944 65.9014 16.352 66.5094 16.544L67.2294 16.76V17H60.7014ZM73.9789 17V16.76L74.2669 16.664C74.8429 16.472 75.1309 16.072 75.1309 15.464V2.624C75.1309 2.304 75.0669 2.064 74.9389 1.904C74.8109 1.728 74.5869 1.6 74.2669 1.52L73.9549 1.448V1.208L78.3469 0.175999L78.6349 0.391999L78.5389 3.752V11.96C78.5389 12.552 78.5389 13.144 78.5389 13.736C78.5549 14.312 78.5629 14.888 78.5629 15.464C78.5629 15.784 78.6269 16.048 78.7549 16.256C78.8829 16.448 79.0989 16.592 79.4029 16.688L79.7149 16.76V17H73.9789ZM87.3261 17.36C86.1101 17.36 85.0541 17.112 84.1581 16.616C83.2621 16.104 82.5661 15.384 82.0701 14.456C81.5901 13.528 81.3501 12.44 81.3501 11.192C81.3501 9.944 81.6061 8.864 82.1181 7.952C82.6461 7.04 83.3581 6.336 84.2541 5.84C85.1661 5.344 86.1901 5.096 87.3261 5.096C88.4621 5.096 89.4781 5.344 90.3741 5.84C91.2701 6.32 91.9741 7.016 92.4861 7.928C93.0141 8.84 93.2781 9.928 93.2781 11.192C93.2781 12.456 93.0301 13.552 92.5341 14.48C92.0541 15.392 91.3661 16.104 90.4701 16.616C89.5901 17.112 88.5421 17.36 87.3261 17.36ZM87.3261 16.88C87.8861 16.88 88.3341 16.72 88.6701 16.4C89.0061 16.08 89.2461 15.512 89.3901 14.696C89.5501 13.88 89.6301 12.728 89.6301 11.24C89.6301 9.736 89.5501 8.576 89.3901 7.76C89.2461 6.944 89.0061 6.376 88.6701 6.056C88.3341 5.736 87.8861 5.576 87.3261 5.576C86.7661 5.576 86.3101 5.736 85.9581 6.056C85.6221 6.376 85.3741 6.944 85.2141 7.76C85.0701 8.576 84.9981 9.736 84.9981 11.24C84.9981 12.728 85.0701 13.88 85.2141 14.696C85.3741 15.512 85.6221 16.08 85.9581 16.4C86.3101 16.72 86.7661 16.88 87.3261 16.88ZM99.5916 17.072L95.8956 6.92C95.7196 6.408 95.3676 6.048 94.8396 5.84L94.4316 5.696V5.456H100.312V5.696L99.9516 5.792C99.3276 5.984 99.1196 6.368 99.3276 6.944L101.56 13.736L103.552 8.456L103.096 7.088C102.984 6.736 102.864 6.472 102.736 6.296C102.624 6.104 102.472 5.968 102.28 5.888L101.872 5.696V5.456H106.84V5.696L106.504 5.84C106.264 5.936 106.12 6.064 106.072 6.224C106.024 6.384 106.056 6.624 106.168 6.944L108.376 13.616L110.656 6.992C110.88 6.384 110.76 6 110.296 5.84L109.768 5.696V5.456H112.648V5.696L112.072 5.864C111.8 5.944 111.6 6.072 111.472 6.248C111.36 6.408 111.256 6.632 111.16 6.92L107.704 17.072H106.48L103.816 9.224L100.984 17.072H99.5916Z" fill="white"/>
</svg>
