<svg width="189" height="46" viewBox="0 0 189 46" fill="none" xmlns="http://www.w3.org/2000/svg">
<path d="M35 7.8956V19.3177C35 19.7637 34.6482 20.0938 34.2326 20.1127C33.817 20.1315 33.4652 19.7336 33.4652 19.3177V12.749L21.6543 6.93957C18.4821 8.32278 15.3107 9.72314 12.1396 11.0817C11.7571 11.2457 11.241 11.3072 11.2337 11.8766C11.226 12.4749 11.7588 12.5552 12.1582 12.7255C16.8165 14.721 21.4781 16.7107 26.1429 18.6947C26.4939 18.8437 26.6679 19.0269 26.6619 19.4516C26.6401 21.1616 26.6546 22.872 26.6506 24.5819C26.6506 24.7434 26.615 24.9049 26.5872 25.1376C26.3327 25.051 26.1404 24.9995 25.9587 24.9221C23.9028 24.0435 21.7985 23.2628 19.8097 22.2415C18.2656 21.449 16.9016 21.3821 15.3809 22.236C14.2298 22.8816 12.9547 23.287 11.7535 23.8422C11.5366 23.9426 11.2785 24.238 11.2688 24.4522C11.2591 24.6665 11.5221 24.9188 11.7196 25.0861C11.9001 25.2372 12.1534 25.2953 12.3763 25.3911C16.9501 27.3495 21.5253 29.3049 26.1021 31.2574C26.5031 31.4277 26.6675 31.6386 26.6635 32.1013C26.6461 34.6719 26.6522 37.2434 26.6522 39.8144L27.1369 39.509L29.9957 37.7028L30.8059 37.1911V26.9823C30.8059 26.5367 31.1573 26.207 31.5733 26.1873C31.9893 26.1677 32.3407 26.5668 32.3407 26.9823V32.8205C32.3407 34.4083 32.3637 35.9978 32.3407 37.5856C32.3359 37.9228 32.1699 38.1914 31.8989 38.3626L31.4861 38.6236L29.7142 39.7428L24.352 43.1318L20.2758 45.7054C20.1773 45.7673 20.0803 45.8334 19.9802 45.8924C19.7107 46.0493 19.4607 46.0204 19.1885 45.897L19.1166 45.8639L18.1279 45.41L13.6967 43.3762L7.7763 40.6566L2.5987 38.2801L0.380475 37.2618C0.141366 37.1521 0 36.8308 0 36.5756V26.9814C0 26.5358 0.351797 26.2061 0.767411 26.1865C1.18302 26.1668 1.53482 26.566 1.53482 26.9814V32.8301L22.0861 42.7005L23.6613 41.7059L25.0935 40.801C20.0254 38.6412 14.9582 36.4795 9.89193 34.3159C8.82724 33.8602 8.25976 33.0444 8.26663 31.8168C8.27875 29.7248 8.27309 27.6283 8.26663 25.5334C8.26421 24.3414 8.80099 23.5251 9.85113 23.0682C11.5778 22.3201 13.3109 21.5863 15.0396 20.8424C15.2093 20.7691 15.3684 20.6687 15.6188 20.5336C15.3337 20.398 15.1693 20.3122 15.0001 20.2407C13.3037 19.5181 11.6037 18.801 9.90768 18.0755C8.78807 17.5965 8.27229 16.7902 8.26744 15.53C8.26461 14.6844 8.27754 13.8389 8.26461 12.9937C8.24522 11.7503 8.80342 10.9135 9.90001 10.4453C13.2479 9.01145 16.5906 7.54791 19.9365 6.094L15.2646 3.79284L13.9119 4.46227L9.23721 6.78016L5.35976 8.70059L4.12463 9.3127V19.1788C4.12463 19.6244 3.77283 19.9545 3.35722 19.9738C2.94161 19.993 2.58981 19.5947 2.58981 19.1788V8.81397C2.58981 8.55248 2.73198 8.24579 2.97028 8.12781L3.06762 8.07927L5.17316 7.03664L9.08493 5.09948L13.5529 2.88618L17.3273 1.01638C17.9384 0.713465 18.5475 0.405945 19.1606 0.108468C19.4434 -0.0300201 19.6857 -0.0392249 19.9802 0.1001C20.0448 0.130643 20.1086 0.16244 20.1724 0.193401L21.1353 0.661165L24.7038 2.39415L29.1721 4.56394L33.0035 6.42578L34.6191 7.21027C34.8566 7.32491 35 7.63578 35 7.8956Z" fill="white"/>
<path d="M50.9586 34V33.6955L51.6589 33.4214C52.004 33.2793 52.2375 33.0966 52.3593 32.8733C52.5014 32.6297 52.5724 32.3049 52.5724 31.8989V16.004C52.5724 15.598 52.5115 15.2834 52.3897 15.0601C52.2882 14.8165 52.0446 14.6236 51.6589 14.4815L50.9586 14.2075V13.903H65.5441L65.7268 18.5923H65.4223L64.113 15.73C63.9303 15.3646 63.7374 15.0702 63.5344 14.8469C63.3314 14.6236 63.0269 14.512 62.6209 14.512H57.1399V23.312H60.3981C60.8041 23.312 61.1086 23.2105 61.3116 23.0075C61.5349 22.7842 61.7277 22.4899 61.8901 22.1245L62.4991 20.9065H62.8036V26.3875H62.4991L61.8901 25.1086C61.7074 24.7432 61.5146 24.459 61.3116 24.256C61.1086 24.0327 60.8041 23.921 60.3981 23.921H57.1399V33.391H63.2908C63.6968 33.391 64.0115 33.2895 64.2348 33.0865C64.4581 32.8632 64.6408 32.5587 64.7829 32.173L66.0313 29.3107H66.3358L66.1531 34H50.9586ZM73.2463 34.4568C71.9471 34.4568 70.9321 34.132 70.2013 33.4823C69.4908 32.8327 69.1356 31.7974 69.1356 30.3764V19.9625H67.0345V19.658L67.7653 19.5362C68.3946 19.3941 68.9326 19.1911 69.3792 18.9272C69.8461 18.6633 70.3028 18.3081 70.7494 17.8615L73.2463 15.0905H73.5508L73.4595 19.3535H76.8699V19.9625H73.429V30.9245C73.429 31.635 73.5813 32.173 73.8858 32.5384C74.2106 32.9038 74.6166 33.0865 75.1038 33.0865C75.5301 33.0865 75.9056 32.985 76.2304 32.782C76.5552 32.5587 76.88 32.2643 77.2048 31.8989L77.5093 32.2034C77.1033 32.8936 76.5451 33.4417 75.8346 33.8477C75.1241 34.2538 74.2613 34.4568 73.2463 34.4568ZM78.5546 34V33.6955L78.92 33.5737C79.6508 33.3301 80.0162 32.8226 80.0162 32.0512V15.7909C80.0162 15.3646 79.9452 15.0499 79.8031 14.8469C79.661 14.6439 79.3869 14.4917 78.9809 14.3902L78.5242 14.2684V13.9639L83.8834 12.6545L84.3706 12.9286L84.2488 17.222V21.0283C84.9593 20.4396 85.7205 19.9422 86.5325 19.5362C87.3648 19.1099 88.2783 18.8968 89.273 18.8968C90.5925 18.8968 91.638 19.2723 92.4094 20.0234C93.2011 20.7745 93.5969 21.9316 93.5969 23.4947V32.0816C93.5969 32.4876 93.6781 32.8124 93.8405 33.056C94.0029 33.2996 94.2871 33.4823 94.6931 33.6041L94.9367 33.6955V34H87.8114V33.6955L88.1768 33.6041C88.9076 33.3605 89.273 32.8429 89.273 32.0512V22.4899C89.273 21.6779 89.1309 21.1196 88.8467 20.8151C88.5828 20.5106 88.1058 20.3584 87.4156 20.3584C86.969 20.3584 86.4818 20.4497 85.954 20.6324C85.4262 20.7948 84.8882 21.0892 84.3401 21.5155V32.1121C84.3401 32.9038 84.7055 33.4113 85.4363 33.6346L85.6799 33.6955V34H78.5546ZM103.77 18.8968C105.089 18.8968 106.216 19.1708 107.15 19.7189C108.083 20.2467 108.794 20.9775 109.281 21.9113C109.789 22.8248 110.042 23.8703 110.042 25.0477C110.042 25.271 110.032 25.5044 110.012 25.748C109.992 25.9713 109.951 26.1743 109.89 26.357H100.816C100.836 28.5494 101.222 30.1328 101.973 31.1072C102.744 32.0613 103.881 32.5384 105.383 32.5384C106.398 32.5384 107.221 32.376 107.85 32.0512C108.479 31.7264 109.068 31.2493 109.616 30.62L109.921 30.8941C109.291 32.0106 108.449 32.8835 107.393 33.5128C106.358 34.1421 105.109 34.4568 103.648 34.4568C102.207 34.4568 100.928 34.1523 99.8111 33.5432C98.6946 32.9139 97.8217 32.0207 97.1924 30.8636C96.5631 29.7065 96.2485 28.3261 96.2485 26.7224C96.2485 25.0578 96.6139 23.647 97.3447 22.4899C98.0755 21.3125 99.0093 20.4193 100.146 19.8103C101.303 19.2013 102.511 18.8968 103.77 18.8968ZM103.678 19.5058C103.09 19.5058 102.582 19.6885 102.156 20.0539C101.75 20.399 101.425 21.0283 101.181 21.9418C100.958 22.835 100.836 24.1037 100.816 25.748H106.023C106.226 23.5353 106.145 21.9418 105.779 20.9674C105.414 19.993 104.714 19.5058 103.678 19.5058ZM111.56 34V33.6955L112.017 33.5737C112.423 33.4519 112.697 33.2692 112.839 33.0256C113.001 32.782 113.082 32.4673 113.082 32.0816V22.5508C113.082 22.1042 113.001 21.7794 112.839 21.5764C112.697 21.3531 112.423 21.2008 112.017 21.1196L111.56 20.9978V20.6933L116.797 18.9272L117.102 19.2317L117.376 21.8504V22.094C117.66 21.5256 118.025 21.008 118.472 20.5411C118.939 20.0539 119.446 19.658 119.994 19.3535C120.563 19.049 121.121 18.8968 121.669 18.8968C122.441 18.8968 123.029 19.1099 123.435 19.5362C123.841 19.9625 124.044 20.5005 124.044 21.1501C124.044 21.8403 123.841 22.3782 123.435 22.7639C123.05 23.1293 122.583 23.312 122.035 23.312C121.182 23.312 120.431 22.8857 119.781 22.0331L119.72 21.9722C119.517 21.688 119.284 21.5358 119.02 21.5155C118.756 21.4749 118.513 21.5967 118.289 21.8809C118.086 22.0636 117.914 22.2869 117.772 22.5508C117.65 22.7944 117.528 23.0786 117.406 23.4034V31.8989C117.406 32.7109 117.761 33.2184 118.472 33.4214L119.446 33.6955V34H111.56ZM124.259 34V33.6955L124.807 33.5128C125.213 33.3707 125.487 33.1778 125.629 32.9342C125.771 32.6906 125.842 32.3658 125.842 31.9598C125.862 30.7418 125.872 29.5137 125.872 28.2754C125.872 27.0371 125.872 25.7988 125.872 24.5605V23.3425C125.872 22.1245 125.872 20.9065 125.872 19.6885C125.872 18.4502 125.862 17.222 125.842 16.004C125.842 15.598 125.781 15.2732 125.659 15.0296C125.558 14.786 125.314 14.5932 124.929 14.4511L124.259 14.2075V13.903H138.996L139.21 18.9577H138.905L137.169 15.7604C136.966 15.3747 136.733 15.0702 136.469 14.8469C136.205 14.6236 135.84 14.512 135.373 14.512H130.47C130.45 15.9533 130.44 17.425 130.44 18.9272C130.44 20.4294 130.44 21.9215 130.44 23.4034H133.607C134.074 23.4034 134.419 23.3019 134.642 23.0989C134.865 22.8959 135.079 22.6015 135.282 22.2158L135.921 21.0587H136.225V26.3875H135.921L135.251 25.2304C135.048 24.865 134.835 24.5706 134.612 24.3473C134.409 24.124 134.074 24.0124 133.607 24.0124H130.44C130.44 25.4334 130.44 26.7935 130.44 28.0927C130.44 29.3716 130.45 30.6302 130.47 31.8685C130.47 32.6602 130.856 33.1778 131.628 33.4214L132.541 33.6955V34H124.259ZM140.495 34V33.6955L140.861 33.5737C141.592 33.3301 141.957 32.8226 141.957 32.0512V15.7604C141.957 15.3544 141.876 15.0499 141.713 14.8469C141.551 14.6236 141.267 14.4612 140.861 14.3597L140.465 14.2684V13.9639L146.037 12.6545L146.403 12.9286L146.281 17.1916V27.6055C146.281 28.3566 146.281 29.1077 146.281 29.8588C146.301 30.5896 146.311 31.3204 146.311 32.0512C146.311 32.4572 146.393 32.7921 146.555 33.056C146.717 33.2996 146.991 33.4823 147.377 33.6041L147.773 33.6955V34H140.495ZM156.821 34.4568C155.278 34.4568 153.938 34.1421 152.801 33.5128C151.664 32.8632 150.781 31.9497 150.152 30.7723C149.543 29.5949 149.239 28.2145 149.239 26.6311C149.239 25.0477 149.563 23.6774 150.213 22.5203C150.883 21.3632 151.786 20.47 152.923 19.8407C154.08 19.2114 155.379 18.8968 156.821 18.8968C158.262 18.8968 159.551 19.2114 160.688 19.8407C161.825 20.4497 162.718 21.3328 163.367 22.4899C164.037 23.647 164.372 25.0274 164.372 26.6311C164.372 28.2348 164.058 29.6253 163.428 30.8027C162.819 31.9598 161.946 32.8632 160.81 33.5128C159.693 34.1421 158.363 34.4568 156.821 34.4568ZM156.821 33.8477C157.531 33.8477 158.1 33.6447 158.526 33.2387C158.952 32.8327 159.257 32.1121 159.439 31.0768C159.642 30.0415 159.744 28.5799 159.744 26.692C159.744 24.7838 159.642 23.312 159.439 22.2767C159.257 21.2414 158.952 20.5208 158.526 20.1148C158.1 19.7088 157.531 19.5058 156.821 19.5058C156.11 19.5058 155.532 19.7088 155.085 20.1148C154.659 20.5208 154.344 21.2414 154.141 22.2767C153.958 23.312 153.867 24.7838 153.867 26.692C153.867 28.5799 153.958 30.0415 154.141 31.0768C154.344 32.1121 154.659 32.8327 155.085 33.2387C155.532 33.6447 156.11 33.8477 156.821 33.8477ZM171.773 34.0914L167.084 21.211C166.861 20.5614 166.414 20.1046 165.744 19.8407L165.227 19.658V19.3535H172.687V19.658L172.23 19.7798C171.439 20.0234 171.175 20.5106 171.439 21.2414L174.27 29.8588L176.798 23.1598L176.219 21.4241C176.077 20.9775 175.925 20.6426 175.762 20.4193C175.62 20.1757 175.427 20.0031 175.184 19.9016L174.666 19.658V19.3535H180.969V19.658L180.543 19.8407C180.239 19.9625 180.056 20.1249 179.995 20.3279C179.934 20.5309 179.975 20.8354 180.117 21.2414L182.918 29.7065L185.811 21.3023C186.095 20.5309 185.943 20.0437 185.354 19.8407L184.684 19.658V19.3535H188.338V19.658L187.607 19.8712C187.262 19.9727 187.009 20.1351 186.846 20.3584C186.704 20.5614 186.572 20.8456 186.45 21.211L182.066 34.0914H180.513L177.133 24.1342L173.54 34.0914H171.773Z" fill="white"/>
</svg>
