<svg width="132" height="22" viewBox="0 0 132 22" fill="none" xmlns="http://www.w3.org/2000/svg">
<path d="M18 1H0V21H18V1Z" fill="white" fill-opacity="0.6"/>
<path d="M10.7787 8.30806V10.0096H13.2948L12.8925 12.6326H10.7787V18.9999H7.94308V12.6326H5.63965V10.0096H7.94308V8.01088C7.94308 5.73681 9.29782 4.47998 11.3701 4.47998C12.3629 4.47998 13.4011 4.65737 13.4011 4.65737V6.89024H12.257C11.1292 6.89108 10.7787 7.59053 10.7787 8.30806Z" fill="#171717"/>
<g clip-path="url(#clip0_28_1824)">
<path d="M56 0H34V22H56V0Z" fill="#171717"/>
<path d="M52.6415 6.40081C52.1701 6.60477 51.6747 6.74706 51.1675 6.82421C51.4046 6.78425 51.7525 6.35147 51.8918 6.17662C52.1101 5.91069 52.2763 5.6053 52.3815 5.27673C52.3939 5.25113 52.4032 5.21865 52.3778 5.19929C52.3653 5.19383 52.3516 5.19155 52.338 5.19264C52.3244 5.19373 52.3113 5.19815 52.2998 5.20554C51.7474 5.50317 51.1603 5.72995 50.5521 5.88061C50.531 5.88721 50.5086 5.88766 50.4873 5.88191C50.4661 5.87616 50.4469 5.86445 50.432 5.84813C50.3851 5.79176 50.334 5.73915 50.279 5.69077C50.0268 5.47132 49.741 5.29459 49.4327 5.16744C49.0207 4.99909 48.5762 4.92693 48.1326 4.95637C47.7022 4.98583 47.2827 5.10535 46.9006 5.30733C46.5186 5.50932 46.1815 5.78792 45.91 6.12603C45.6272 6.47687 45.4245 6.88625 45.3163 7.32506C45.2238 7.74087 45.2131 8.17092 45.2847 8.59089C45.2946 8.66146 45.2884 8.67083 45.2228 8.66146C42.8226 8.30113 40.8334 7.43497 39.2175 5.57836C39.1469 5.4978 39.1092 5.4978 39.0516 5.5846C38.3452 6.6531 38.6882 8.36983 39.571 9.21351C39.6181 9.25848 39.6657 9.30344 39.714 9.34777C39.7285 9.36101 39.7383 9.37867 39.742 9.39804C39.7456 9.41742 39.7429 9.43746 39.7342 9.45513C39.7255 9.4728 39.7113 9.48712 39.6938 9.49592C39.6764 9.50473 39.6565 9.50752 39.6373 9.5039C39.3398 9.448 39.0516 9.35026 38.781 9.21351C38.7111 9.16918 38.6758 9.19478 38.6696 9.27596C38.6648 9.39206 38.6713 9.50834 38.6888 9.62318C38.8244 10.706 39.5679 11.7083 40.5864 12.0993H40.5901C40.609 12.1071 40.6247 12.1212 40.6346 12.1392C40.6445 12.1572 40.648 12.1781 40.6445 12.1984C40.641 12.2187 40.6308 12.2372 40.6155 12.2509C40.6002 12.2645 40.5808 12.2725 40.5604 12.2735C40.3183 12.2817 40.0759 12.2746 39.8348 12.2523C39.7518 12.236 39.7202 12.2779 39.7518 12.3578C40.2508 13.7317 41.3262 14.1401 42.1341 14.373H42.1459C42.2524 14.3912 42.3582 14.3912 42.4647 14.4168C42.4585 14.4261 42.4517 14.4261 42.4455 14.4361C42.1775 14.8483 41.2482 15.1549 40.8148 15.3104C40.0218 15.5956 39.1771 15.7046 38.3384 15.6301C38.2053 15.6102 38.1774 15.612 38.1409 15.6301C38.1044 15.6483 38.1366 15.6851 38.1793 15.7194C38.3483 15.8325 38.5198 15.9318 38.695 16.0279C39.221 16.311 39.7761 16.535 40.3505 16.6961C43.3259 17.5248 46.6771 16.916 48.9114 14.6772C50.6654 12.9192 51.2801 10.4931 51.2801 8.06633C51.2801 7.97141 51.3916 7.91895 51.4578 7.86899C51.903 7.52085 52.2955 7.10915 52.623 6.64686C52.674 6.57978 52.7011 6.49724 52.6997 6.41268V6.40019C52.701 6.36209 52.7003 6.37333 52.6415 6.40081Z" fill="white" fill-opacity="0.6"/>
</g>
<g clip-path="url(#clip1_28_1824)">
<path d="M94 0H72V22H94V0Z" fill="#171717"/>
<path d="M78.0527 8.6196H80.5906V16.7712H78.0527V8.6196ZM79.3219 4.56836C79.6126 4.5686 79.8967 4.65503 80.1382 4.81671C80.3797 4.97839 80.5679 5.20806 80.6789 5.47669C80.7899 5.74531 80.8188 6.04082 80.7618 6.32585C80.7049 6.61087 80.5647 6.87261 80.359 7.07796C80.1533 7.28332 79.8914 7.42307 79.6062 7.47954C79.3211 7.53601 79.0257 7.50666 78.7572 7.39521C78.4888 7.28376 78.2594 7.09521 78.0981 6.8534C77.9369 6.61159 77.8509 6.3274 77.8511 6.03674C77.8513 5.84375 77.8895 5.65268 77.9635 5.47444C78.0375 5.2962 78.1459 5.13428 78.2824 4.99793C78.419 4.86158 78.5811 4.75347 78.7595 4.67976C78.9378 4.60605 79.129 4.5682 79.3219 4.56836Z" fill="white" fill-opacity="0.6"/>
<path d="M82.1804 8.6195H84.6085V9.73642H84.6419C84.9806 9.0948 85.8073 8.41919 87.0414 8.41919C89.6067 8.41919 90.0795 10.1067 90.0795 12.3041V16.7748H87.5476V12.8079C87.5476 11.8616 87.5294 10.6463 86.231 10.6463C84.912 10.6463 84.7135 11.6783 84.7135 12.7387V16.7712H82.181L82.1804 8.6195Z" fill="white" fill-opacity="0.6"/>
</g>
<g clip-path="url(#clip2_28_1824)">
<rect width="22" height="22" transform="translate(110)" fill="white" fill-opacity="0.6"/>
<path d="M132 0H110V22H132V0Z" fill="#171717"/>
<path d="M125.26 6.16919C125.087 6.16919 124.918 6.2205 124.774 6.31665C124.63 6.41279 124.518 6.54944 124.451 6.70932C124.385 6.8692 124.368 7.04512 124.402 7.21485C124.435 7.38457 124.519 7.54048 124.641 7.66284C124.763 7.78521 124.919 7.86854 125.089 7.9023C125.259 7.93606 125.435 7.91873 125.595 7.85251C125.754 7.78629 125.891 7.67414 125.987 7.53025C126.083 7.38637 126.135 7.2172 126.135 7.04415C126.135 6.92923 126.112 6.81542 126.068 6.70923C126.024 6.60304 125.96 6.50655 125.879 6.42529C125.797 6.34402 125.701 6.27958 125.595 6.23563C125.488 6.19169 125.375 6.16911 125.26 6.16919Z" fill="white" fill-opacity="0.6"/>
<path d="M121.371 7.28931C120.644 7.28919 119.933 7.50464 119.329 7.9084C118.724 8.31217 118.253 8.88611 117.975 9.55764C117.697 10.2292 117.624 10.9681 117.766 11.6811C117.908 12.394 118.258 13.0489 118.772 13.5628C119.286 14.0768 119.94 14.4268 120.653 14.5686C121.366 14.7104 122.105 14.6376 122.777 14.3594C123.448 14.0811 124.022 13.61 124.426 13.0056C124.83 12.4012 125.045 11.6906 125.045 10.9637C125.044 9.98955 124.656 9.05569 123.968 8.36688C123.279 7.67808 122.345 7.29055 121.371 7.28931ZM121.371 13.3179C120.905 13.318 120.45 13.1801 120.063 12.9215C119.675 12.6628 119.374 12.2952 119.195 11.865C119.017 11.4348 118.97 10.9615 119.061 10.5047C119.152 10.048 119.376 9.62848 119.705 9.29917C120.034 8.96986 120.454 8.74558 120.911 8.65469C121.367 8.56381 121.841 8.61039 122.271 8.78856C122.701 8.96673 123.069 9.26849 123.328 9.65565C123.586 10.0428 123.724 10.498 123.724 10.9637C123.723 11.5877 123.475 12.186 123.034 12.6274C122.593 13.0687 121.995 13.3173 121.371 13.3185V13.3179Z" fill="white" fill-opacity="0.6"/>
<path d="M124.288 18.425H118.333C117.145 18.4232 116.006 17.9506 115.166 17.1106C114.326 16.2707 113.853 15.1319 113.852 13.944V7.98557C113.853 6.79768 114.326 5.65893 115.166 4.81897C116.006 3.979 117.145 3.50635 118.333 3.50464H124.288C125.475 3.50635 126.614 3.979 127.454 4.81897C128.294 5.65893 128.767 6.79768 128.768 7.98557V13.9434C128.767 15.1314 128.294 16.2703 127.454 17.1104C126.614 17.9505 125.476 18.4232 124.288 18.425ZM118.33 4.90729C117.514 4.90823 116.732 5.23284 116.155 5.80993C115.578 6.38702 115.253 7.16945 115.252 7.98557V13.9434C115.253 14.7596 115.578 15.542 116.155 16.1191C116.732 16.6962 117.514 17.0208 118.33 17.0217H124.285C125.102 17.022 125.886 16.698 126.464 16.1208C127.042 15.5436 127.368 14.7604 127.369 13.9434V7.98557C127.368 7.16939 127.043 6.38696 126.466 5.80989C125.889 5.23282 125.106 4.90822 124.29 4.90729H118.33Z" fill="white" fill-opacity="0.6"/>
</g>
<defs>
<clipPath id="clip0_28_1824">
<rect width="22" height="22" fill="white" transform="translate(34)"/>
</clipPath>
<clipPath id="clip1_28_1824">
<rect width="22" height="22" fill="white" transform="translate(72)"/>
</clipPath>
<clipPath id="clip2_28_1824">
<rect width="22" height="22" fill="white" transform="translate(110)"/>
</clipPath>
</defs>
</svg>
